inDegrees=yes
name=ik_CORRECTED_MT_2026-09-08_17h41_01210270-000-000_orientations
DataType=double
version=3
OpenSimVersion=4.5
endheader
time	pelvis_tilt	pelvis_list	pelvis_rotation	pelvis_tx	pelvis_ty	pelvis_tz	hip_flexion_r	hip_adduction_r	hip_rotation_r	knee_angle_r	knee_angle_r_beta	ankle_angle_r	subtalar_angle_r	mtp_angle_r	hip_flexion_l	hip_adduction_l	hip_rotation_l	knee_angle_l	knee_angle_l_beta	ankle_angle_l	subtalar_angle_l	mtp_angle_l	lumbar_extension	lumbar_bending	lumbar_rotation	arm_flex_r	arm_add_r	arm_rot_r	elbow_flex_r	pro_sup_r	wrist_flex_r	wrist_dev_r	arm_flex_l	arm_add_l	arm_rot_l	elbow_flex_l	pro_sup_l	wrist_flex_l	wrist_dev_l
0	0.08053062444726194	-0.007320605127335959	159.7249890413784	0	0.9399999999999999	0	-1.140526535266363	0.1984374193203122	-3.000929130146879	-1.227736235563363	-0.02142803965662139	1.225323845059948	0	0	1.341839797583721	-0.0179451496166761	1.759639908829808	1.203793273024797	0.02101015612764174	-1.341047432590365	0	0	0.1068926912015305	0.02565289550649684	1.678506191905204	-0.5126681188960733	-0.1781892339866412	2.754616312114099	1.023869672903169	14.7367139838211	0	0	-0.4644071363303258	-0.06799037449066075	-4.322393810299365	0.8799755230885639	14.7367139838211	0	0
0.025	0.07132110087288793	-0.03859546223192405	159.736636301608	0	0.9399999999999999	0	-1.177721847403307	0.1732047904669185	-2.989086200057862	-1.239469988904593	-0.02163283228604273	1.333646580632778	0	0	1.281687943062507	0.01830041733362181	1.773370980525465	1.154854610695378	0.02015601533847167	-1.243104990344088	0	0	0.229179296602316	0.003699915502734502	1.680083796369167	-0.6583705654063111	-0.2061552506675189	2.748358721781464	1.057525018911451	19.22795580699641	0	0	-0.6050344997087783	-0.05008880408440553	-4.303761617657074	0.9023848682831835	19.22795580699641	0	0
0.05	0.02148519409311803	-0.03051168058500272	159.7232469730712	0	0.9399999999999999	0	-1.185187779375814	0.1563177591160026	-2.955376369692277	-1.193640070044727	-0.02083294930601622	1.281344893433755	0	0	1.270294228656475	0.02281584458913443	1.761817963162306	1.196004558125494	0.02087421740814977	-1.283686219713004	0	0	0.02155319035099167	-0.02532886515319252	1.677644117397489	-0.441460558940023	-0.1908156532493429	2.723525082797284	1.032105664223335	22.99219562945499	0	0	-0.4098831413106508	-0.05916316298940494	-4.286103831243203	0.8777691260159182	22.99219562945499	0	0
0.075	0.110991581588767	-0.08164575956074385	159.716536412721	0	0.9399999999999999	0	-1.132099015118926	0.1414935326000373	-2.911909684722096	-1.250080683135243	-0.02181802383628994	1.338040872294224	0	0	1.315626914122034	0.03719017518922878	1.737970752801155	1.135471559433342	0.01981771727486629	-1.219764705133305	0	0	0.2317904258028471	-0.01732912863330223	1.669228955996484	-0.577557930789821	-0.174008762414429	2.712001997055649	1.0246454140168	27.26589987503114	0	0	-0.5255408796100136	-0.004300781173962848	-4.247683112844311	0.9352919708432113	27.26589987503114	0	0
0.1	-0.004295685762964498	-0.06107306830944867	159.6986100289801	0	0.9399999999999999	0	-1.193055467409752	0.1133487230101685	-2.897709039161394	-1.18866404361917	-0.020746101261224	1.276654192056799	0	0	1.260740814524996	0.0419273254711991	1.685920173752091	1.190877936377335	0.02078474097914005	-1.248342839931882	0	0	0.03330317409081066	-0.05238174592574075	1.660453429271805	-0.4596816065199958	-0.1726413244323566	2.744905633173416	0.9810766691130173	31.03497553169309	0	0	-0.3907288100349923	-0.004021280648740847	-4.246051752775781	0.8893288193500211	31.03497553169309	0	0
0.125	0.01475974300652439	-0.08909376425417605	159.6758640553376	0	0.9399999999999999	0	-1.160587252011489	0.09145928704607688	-2.865714151384346	-1.205069961329968	-0.02103243854208869	1.25778674348848	0	0	1.286954012023124	0.05092869137172946	1.649871609411415	1.172538722165211	0.02046466130890994	-1.243772461604017	0	0	0.0568725282359805	-0.06855642042534495	1.671387405168671	-0.4637196920378734	-0.1794763608618504	2.760927842965136	0.985539419275433	33.57185391419029	0	0	-0.3733237139784694	-0.003380364494442604	-4.224951114146883	0.8955767448305111	33.57185391419029	0	0
0.15	0.01269862795930478	-0.1151268941202041	159.6582689515697	0	0.9399999999999999	0	-1.153587599056195	0.06206398267060512	-2.821228398328428	-1.207668745184291	-0.02107779587689429	1.257606197153702	0	0	1.282995497391845	0.0771246490104732	1.645573587497722	1.165340578135029	0.0203390299955505	-1.218911928478015	0	0	0.05365581570500642	-0.08786824944666291	1.677511271802984	-0.4616725580769694	-0.1791752135227663	2.79841568717953	0.9868696558979758	35.20570966521961	0	0	-0.3402397281764754	-0.008912485967318827	-4.216779294732098	0.9063336262693102	35.20570966521961	0	0
0.175	0.01488331600914412	-0.1409649468737156	159.6258195206354	0	0.9399999999999999	0	-1.140920092320633	0.0348153544720876	-2.783783619475523	-1.207915305164406	-0.02108209916035096	1.261443464164844	0	0	1.285655726688619	0.09294057560448028	1.614862291509566	1.15986313098825	0.02024343050823523	-1.194027130627262	0	0	0.05869488035963139	-0.1009204084286178	1.703301591505638	-0.4654389894920833	-0.1895379313864619	2.800465181057032	0.9871457696886379	36.60466886630854	0	0	-0.3142432295115653	-0.006539491359207207	-4.195069355621118	0.9168042873474224	36.60466886630854	0	0
0.2	0.01322744514512012	-0.1545979232764748	159.6057591161578	0	0.9399999999999999	0	-1.129343546946571	0.02760369726270102	-2.726136382048747	-1.205248817551949	-0.02103556017204994	1.25754879064947	0	0	1.288664081854042	0.09823638832812513	1.60223833373742	1.142944323187837	0.01994814160660593	-1.169810405326145	0	0	0.02877102444780467	-0.1121778804879842	1.726211326630323	-0.439685469657501	-0.1960545905965096	2.807457798707062	0.9768217998865318	37.82166767257186	0	0	-0.268255942838647	-0.01702661562609056	-4.168587254043961	0.9322100958646738	37.82166767257186	0	0
0.225	0.0234226295469926	-0.1766510111072495	159.5828096465713	0	0.9399999999999999	0	-1.119447195821983	-0.007494304163087545	-2.694726482945004	-1.218430682828343	-0.02126562712267733	1.26006940365777	0	0	1.286345179338755	0.1190660755793714	1.549419021204872	1.128545144134159	0.01969682852253505	-1.145617340975617	0	0	0.07351570772880682	-0.1173338302032132	1.748147688081729	-0.4649801173953899	-0.2157129872965701	2.813733197485071	0.9714959212168753	38.84549366661113	0	0	-0.2809200541136601	-0.04592228609182326	-4.148080190456943	0.9522394310673375	38.84549366661113	0	0
0.25	0.02019365009024953	-0.2044435047125238	159.5547286579711	0	0.9399999999999999	0	-1.119406733006772	-0.02160969990688346	-2.63256520253948	-1.224783947538694	-0.02137651251012371	1.278716094467552	0	0	1.27900192589267	0.123465740241225	1.525008559944782	1.111993879470035	0.0194079544587771	-1.100690666589573	0	0	0.09007385635385633	-0.1523502572484639	1.765582082260194	-0.4842024669566086	-0.2126862624271004	2.82546403133204	0.9592744858007798	39.73477059345053	0	0	-0.2784663419105896	-0.03914327774540115	-4.148931343923699	0.9520818206211226	39.73477059345053	0	0
0.275	0.01543584743257348	-0.2297724648535603	159.5414915546385	0	0.9399999999999999	0	-1.093074862209306	-0.06953006003328674	-2.622851197971062	-1.208386723171892	-0.02109032695673477	1.227762704897187	0	0	1.306148252630824	0.153652244183187	1.489637946694971	1.113202686392547	0.01942905211959582	-1.125499626457356	0	0	0.02677518349256483	-0.1854962684672215	1.790344668138644	-0.38969951113778	-0.1853887308937741	2.814067673851874	0.9598912675611596	40.5720502137434	0	0	-0.1714849661957528	-0.0777756890397434	-4.11766363286949	0.9508950469496251	40.5720502137434	0	0
0.3	0.02729113292863153	-0.2369486471644585	159.5319669531255	0	0.9399999999999999	0	-1.066623747877638	-0.06021007136207618	-2.583457564641471	-1.217832754219139	-0.02125519129975485	1.242794074346202	0	0	1.298014761675003	0.1405177109443755	1.49692555977561	1.107613959456351	0.01933151043356431	-1.103768466778926	0	0	0.08756911373397151	-0.1931402893574123	1.786631919672761	-0.4270773527335962	-0.1981826400143243	2.81214979343336	0.9315396219627483	41.37052966829	0	0	-0.2168676906215441	-0.09117978914416482	-4.115806662818284	0.9517276887592339	41.37052966829	0	0
